<?xml version="1.0" encoding="UTF-8"?>
<svg id="swell-horizontal-stripes" xmlns="http://www.w3.org/2000/svg" xmlns:xlink="http://www.w3.org/1999/xlink" version="1.1" viewBox="0 0 8192 3680.2">
  <!-- Generator: Adobe Illustrator 30.4.0, SVG Export Plug-In . SVG Version: 2.1.4 Build 226)  -->
  <defs>
    <style>
      .st0 {
        fill: none;
      }

      .st1 {
        fill: #86c9cf;
      }

      .st2 {
        fill: #84c9d1;
      }

      .st3 {
        fill: #ef7054;
      }

      .st4 {
        fill: #f2b84a;
      }

      .st5 {
        fill: #d94734;
      }

      .st7 {
        clip-path: url(#clippath);
      }

      .st8 {
        fill: #a37543;
      }
    </style>
    <clipPath id="clippath">
      <path class="st0" d="M3851.64,352.38c4.06,56.53,4.06,117.11,4.06,181.68h0c0,258.39-16.13,573.3-16.13,791.35h0c0,197.81,4.03,399.69,4.03,597.53h0c0,181.67-4.02,359.33-20.19,536.98h0c-177.65-415.86-532.93-1110.3-581.37-1191.04h0c-32.31-44.42-80.77-60.59-125.18-60.59h0c-56.52,0-117.09,28.28-145.35,72.69h0l-585.42,835.73V425.05c0-28.28,0-36.37-12.11-36.37h0c-8.07,0-16.16,4.06-32.31,4.06h0l-391.62,20.19c-32.3,4.02-40.39,4.02-40.39,68.63h0c0,100.94,24.24,367.38,24.24,1049.71h0c0,359.33-8.08,831.7-28.26,1457.51h0v36.33c0,36.33,4.02,36.33,36.33,36.33h32.31c68.63-8.04,177.63-8.04,266.46-8.04h0c286.66,20.16,286.66-12.1,355.31-129.21h0l464.29-799.4c20.19-60.55,32.3,0,36.34,20.19h0c121.12,270.5,339.14,771.12,460.27,1013.38h0v-.02c12.1,36.33,213.99,40.39,371.45,40.39h387.57c36.34,0,32.31-4.06,32.31-48.47h0c-12.1-468.32-24.25-1005.29-24.25-1514h0c0-141.32,4.06-541.04,4.06-678.3h0l1412.27-60.54c48.47,0,52.5-4.06,52.5-96.91h0l-8.09-409.57c0-60.54-12.11-68.63-64.57-68.63h0l-1816.06-30.47c-10.79,0-19.37-.29-26.19-.29h0c-28.95,0-26.31,5.3-26.31,60.83ZM6451.31,294.77c-1.83,0-3.67.12-5.48.4h0c-10.34,1.58-70.68,7.26-404.32,7.66h-.02c-20.49.03-36.97,16.87-36.55,37.35h0l10.93,531.11c4.03,149.37,8.09,720.85,8.09,882.37h0c0,666.16-36.37,1170.51-44.41,1352.19h0v12.11c0,88.82,40.35,96.91,129.18,96.91h0c266.48,0,1659.39,4.03,2006.61,4.03h0c56.53,0,72.66-4.02,72.66-52.46h0v-120.11c0-.68-.02-1.37-.06-2.05h0l-20.1-357.98c-4.06-84.79,4.03-113.04-44.41-113.04h-6.2c-1.25,0-2.5.06-3.75.19h0c-270.47,28.08-668.92,36.13-914.64,36.13h0c-355.27,0-621.75-20.19-621.75-44.22h0V379.77c-4.03-76.91-20.19-85-76.72-85h-49.06ZM7194.82,360.3c-84.8,4.06-121.13,8.09-161.48,8.09h0c-32.11,0-68.23-3.97-143.94-8.01h0c-.94-.04-1.89-.08-2.83-.04h0c-59.24,2.82-63.2,183.28-63.2,271.41h0v20.19c0,346.99-12.09,1109.29-44.35,1654.25h0c-.04.72-.06,1.43-.06,2.15h0v11.03c0,88.82,40.35,96.91,129.18,96.91h.01c274.56-.01,799.44,12.1,1146.62,12.1h0c60.58,0,76.72-4.02,72.69-68.63h0l-20.19-354.09c-4.03-88.83,0-113.08-52.5-113.08h-694.18c-20.21,0-36.59-16.38-36.59-36.59h0V465.3c-4.02-96.91-20.15-105-76.68-105h-52.5ZM0,1591.8c8.1,399.72,234.19,480.46,520.84,480.46h0c157.46,0,343.18-40.39,528.9-40.39h0c141.31,0,238.22,137.31,238.22,286.68h0c0,173.59-129.21,359.33-432,359.33h0c-266.48-4.03-399.72-76.72-399.72-343.2h0c0-104.96-28.27-104.96-121.12-104.96H52.5c-44.41,0-52.5,8.09-52.5,56.53h0v125.15h0c0,565.23,201.87,876.13,775.17,876.13h0c803.45,0,964.95-286.64,964.95-1142.6h0c0-331.05-262.43-440.07-545.05-440.07h0c-161.5,0-343.18,36.37-484.49,36.37h0c-157.46,0-270.5-40.39-270.5-214.02h0c4.03-399.68,137.27-435.79,391.62-435.79h44.41c323,0,403.74,32.09,403.74,258.18h0c0,133.2,4.03,141.28,125.15,149.37h0l282.63,16.13c48.44,4.06,52.48-4.03,52.48-56.53h0v-205.9c0-557.17-205.91-880.14-767.11-880.14h0C169.56,372.53,0,711.67,0,1591.8ZM5741.2,1030.59l-1126.47,60.59c-36.32,0-36.32-4.06-36.32,32.31h0c-4.03,177.61-8.09,339.13-8.09,545.03h0c0,480.46,12.15,997.27,12.15,1417.19h0v92.85c0,44.41-4.07,40.35,60.54,40.35h.01s.02-.01.02-.01l904.36,12.11h16.17c16.13,0,157.46,0,157.46-48.44h0l4.03-488.57c0-24.22-14.8-36.33-44.41-36.33h0c-213.98,4.02-391.63,12.11-565.22,12.11h0c-84.77,0-161.52-4.02-234.18-12.11h0c-24.22,0-28.25-44.41-28.25-96.91h0c0-64.57,12.1-133.2,20.19-133.2h0l767.09-20.19c80.75-4.07,76.72,4.01,76.72-56.53h0l12.11-411.83c4.03-40.35,16.13-40.35-44.41-40.35h-811.51c-16.17,0-28.28-68.67-28.28-141.33h0c0-76.72,12.1-157.46,36.32-157.46h0c379.52,0,536.98,12.11,698.46,12.11h0c197.84,0,197.84-4.03,197.84-28.28h0v-512.72c0-36.33,0-40.39-24.22-40.39h-12.11Z"/>
    </clipPath>
  </defs>
  <g class="st7">
    <g id="big-swell-horizontal-stripes">
      <rect id="stripe-upper-sky" class="st1" x="-160" y="320" width="8512" height="690"/>
      <rect id="stripe-golden-e-top-shelf" class="st4" x="-160" y="1030" width="8512" height="588"/>
      <rect id="stripe-coral-e-middle" class="st3" x="-160" y="1638" width="8512" height="467"/>
      <rect id="stripe-red-lower-shelf" class="st5" x="-160" y="2125" width="8512" height="433"/>
      <rect id="stripe-deep-ocean-baseline" class="st8" x="-160" y="2578" width="8512" height="647"/>
    </g>
  </g>
  <g id="the-word-teal">
    <path id="small-the-t" class="st2" d="M2581.5,1043.64c0-141.59,6.71-201.84,6.71-332.88,0-47.84-.95-56.45-2.87-130.11-19.13-.93-23.92.97-87.04-.93l-26.79-.97c-12.44,0-12.44-6.71-12.44-22.95l2.87-145.39v-6.71c0-2.87.97-2.87,5.75-2.87h11.47c53.56,0,125.31-.97,219.03-.97,39.21,0,57.39-.93,120.53-3.8,16.26,0,16.26.93,16.26,18.15v149.22c0,14.34-1.92,15.32-14.36,15.32-21.03.97-55.48,0-75.57.97-21.03.93-35.38.93-41.13.93,8.63,211.41,8.63,270.73,11.5,463.92,0,15.32-.97,15.32-20.1,15.32h-101.38c-7.65,0-12.44,0-12.44-16.24h0Z"/>
    <path id="small-the-h" class="st2" d="M3135.38,1080.94v-220.02c0-15.27-2.87-17.22-14.34-21.05-22-3.8-42.09-4.77-61.22-4.77-29.64,0-38.27,2.87-73.64,4.77-8.61,0-9.57,0-9.57,17.25v170.24c0,12.44,0,13.42-13.37,13.42h-73.67c-13.4,0-17.22-1.94-17.22-17.25.95-18.15,1.92-36.32,1.92-68.86,0-64.09-1.92-185.56-1.92-477.29v-25.82c0-20.08,0-25.82,12.43-25.82h70.79c14.34,0,21.03,0,21.03,25.82v243.9c0,18.18.97,19.12,9.57,19.12h111.91c12.43,0,16.26-109.02,16.26-190.32,0-42.1-.95-76.53-1.92-86.11,0-23.92,8.61-24.85,30.61-24.85,22.95,1.9,41.13,1.9,81.3,1.9,22,0,38.27-.97,55.48-1.9,22,0,25.84,3.8,25.84,29.66v638c0,23.92-8.61,25.82-30.61,25.82h-111.93c-23.9,0-27.74-3.84-27.74-25.82h0v-.02Z"/>
    <path id="small-the-e" class="st2" d="M3351.59,738.49c.97-210.44,32.52-333.81,221.92-333.81,116.7,0,194.16,46.87,194.16,283.14,0,77.47-11.47,113.83-50.67,113.83-63.11,0-129.14,3.8-198.96,3.8-18.16,0-41.12.97-41.12,21.05,0,34.42.95,118.6,87.99,118.6,63.11,0,95.68-12.41,95.68-75.57,0-24.85,15.27-24.85,28.69-24.85h66.91c10.54,0,11.47-.97,11.47,8.61v34.42c0,138.68-58.35,200.86-198.93,200.86-213.31,0-217.15-154.96-217.15-350.09h.01ZM3645.24,721.27c16.28-.97,18.18-12.44,18.18-24.85v-11.47c0-100.45-36.32-110.03-104.25-110.03-79.38,0-85.14,97.58-85.14,127.24v8.61c0,12.44,10.53,16.24,16.26,16.24l154.94-5.74h.01Z"/>
  </g>
</svg>
